<?xml version="1.0" encoding="utf-8"?>
<!-- Generator: Adobe Illustrator 24.0.0, SVG Export Plug-In . SVG Version: 6.00 Build 0)  -->
<svg version="1.1" id="Layer_1" xmlns="http://www.w3.org/2000/svg" xmlns:xlink="http://www.w3.org/1999/xlink" x="0px" y="0px"
	 viewBox="0 0 476 469.33" enable-background="new 0 0 476 469.33" xml:space="preserve">
<g>
	<path fill="none" stroke="#FEBF38" stroke-width="36" stroke-linecap="round" stroke-miterlimit="10" d="M237.83,26.67
		c100.38,0,184.17,69.54,203.75,161.85c2.93,13.69,4.42,27.64,4.42,41.64c0,112.41-89.49,204.93-204.59,204.93
		c-18.3,0-43-4.6-56.47-8.37"/>
	<path fill="none" stroke="#F1F2F2" stroke-width="36" stroke-linecap="round" stroke-miterlimit="10" d="M184.94,426.72
		c-13.47-3.77-26.92-8.77-30.39-10.11c-3.55-1.36-7.32-2.07-11.12-2.07c-4.15-0.02-8.27,0.81-12.09,2.43l-67.83,24.48
		c-1.49,0.64-3.06,1.05-4.67,1.22c-5.3-0.02-9.59-4.33-9.57-9.63c0-0.04,0-0.07,0-0.11c0.08-1.11,0.28-2.22,0.6-3.29l19.62-70.97
		c1.19-4.38-1.44-10.47-3.95-14.86c-0.78-1.31-1.63-2.58-2.54-3.8c-21.53-32.65-33-70.89-33-110
		C29.65,117.76,122.73,26.67,237.83,26.67"/>
</g>
</svg>
